<svg width="86" height="87" viewBox="0 0 86 87" fill="none" xmlns="http://www.w3.org/2000/svg">
<path fill-rule="evenodd" clip-rule="evenodd" d="M43 6.00511C22.5655 6.00511 6 22.5847 6 43.0366C6 63.4884 22.5655 80.0681 43 80.0681C63.4344 80.0681 80 63.4884 80 43.0366C80 22.5847 63.4344 6.00511 43 6.00511ZM0 43.0366C0 19.2681 19.2518 0 43 0C66.7484 0 86 19.2681 86 43.0366C86 66.8052 66.7484 86.0732 43 86.0732C19.2518 86.0732 0 66.8052 0 43.0366Z" fill="#B92B5D"/>
<path fill-rule="evenodd" clip-rule="evenodd" d="M23.0005 31.0264C23.0005 28.8153 24.7914 27.0229 27.0005 27.0229H27.0364C29.2455 27.0229 31.0364 28.8153 31.0364 31.0264C31.0364 33.2374 29.2455 35.0298 27.0364 35.0298H27.0005C24.7914 35.0298 23.0005 33.2374 23.0005 31.0264ZM54.9645 31.0264C54.9645 28.8153 56.7553 27.0229 58.9645 27.0229H59.0005C61.2097 27.0229 63.0005 28.8153 63.0005 31.0264C63.0005 33.2374 61.2097 35.0298 59.0005 35.0298H58.9645C56.7553 35.0298 54.9645 33.2374 54.9645 31.0264Z" fill="#B92B5D"/>
<path fill-rule="evenodd" clip-rule="evenodd" d="M57.7849 49.9284C58.4001 51.4677 57.6517 53.2152 56.1133 53.8313L36.1133 61.8381C34.5752 62.4538 32.8293 61.7048 32.2139 60.1651C31.5986 58.6258 32.3468 56.8783 33.8852 56.2621L53.8853 48.2553C55.4233 47.6396 57.1693 48.3887 57.7849 49.9284Z" fill="#B92B5D"/>
</svg>
